<?xml version="1.0" encoding="UTF-8"?>
<!-- Created with Inkscape (http://www.inkscape.org/) -->
<svg width="196" height="279.2" version="1.1" viewBox="0 0 196 279.2" xml:space="preserve" xmlns="http://www.w3.org/2000/svg"><defs><clipPath id="clipPath23"><path d="m0 209.4h147v-209.4h-147z"/></clipPath><clipPath id="clipPath31"><path d="m30.6 111.7h19.2v-13.7h-19.2z"/></clipPath><clipPath id="clipPath51"><path d="m0 209.4h147v-209.4h-147z"/></clipPath><clipPath id="clipPath59"><path d="m15.5 114h9.8v-17.8h-9.8z"/></clipPath><clipPath id="clipPath79"><path d="m0 209.4h147v-209.4h-147z"/></clipPath><clipPath id="clipPath87"><path d="m16.2 111.4h9.1v-4h-9.1z"/></clipPath><clipPath id="clipPath107"><path d="m0 209.4h147v-209.4h-147z"/></clipPath><clipPath id="clipPath115"><path d="m15.5 102.2h9.7v-1.9h-9.7z"/></clipPath><clipPath id="clipPath135"><path d="m0 209.4h147v-209.4h-147z"/></clipPath><clipPath id="clipPath143"><path d="m22.5 113.7h1.6v-17.5h-1.6z"/></clipPath><clipPath id="clipPath163"><path d="m0 209.4h147v-209.4h-147z"/></clipPath><clipPath id="clipPath171"><path d="m25 112.2h5.9v-14h-5.9z"/></clipPath><clipPath id="clipPath191"><path d="m34 108.1h0.5v-6.5h-0.5z"/></clipPath><clipPath id="clipPath211"><path d="m36.3 108.6h0.6v-6.8h-0.6z"/></clipPath><clipPath id="clipPath231"><path d="m39 108.9h0.7375v-6.8h-0.7375z"/></clipPath><clipPath id="clipPath251"><path d="m44.625 108.5h0.15v-6.3h-0.15z"/></clipPath><clipPath id="clipPath271"><path d="m46.8 108h0.4v-5.9h-0.4z"/></clipPath><clipPath id="clipPath291"><path d="m54.1 99.9h13.3v-77.5h-13.3z"/></clipPath><clipPath id="clipPath311"><path d="m31 23.086h46.5v-22.524h-46.5z"/></clipPath><clipPath id="clipPath331"><path d="m76.8 16.016h6.7482v-14.416h-6.7482z"/></clipPath><clipPath id="clipPath351"><path d="m2.4 207.1h94.131v-95h-94.131z"/></clipPath><clipPath id="clipPath371"><path d="m32.3 168h84.2v-79.6h-84.2z"/></clipPath><clipPath id="clipPath391"><path d="m54.5 148.1h39.8v-39.8h-39.8z"/></clipPath><clipPath id="clipPath411"><path d="m42 108.7h0.5v-6.8h-0.5z"/></clipPath><clipPath id="clipPath431"><path d="m80.077 97.605h56.623v-88.105h-56.623z"/></clipPath><clipPath id="clipPath451"><path d="m129.6 31.7h16.796v-22.1h-16.796z"/></clipPath><clipPath id="clipPath471"><path d="m121 17.103h18v-14.059h-18z"/></clipPath><clipPath id="clipPath491"><path d="m120.2 34.6h11.9v-13h-11.9z"/></clipPath><clipPath id="clipPath511"><path d="m85.1 91.8h36.906v-57.015h-36.906z"/></clipPath><clipPath id="clipPath531"><path d="m87 89.3h32.705v-51.959h-32.705z"/></clipPath></defs><g transform="matrix(1.3333 0 0 -1.3333 0 279.2)"><g stroke-width="3"><g clip-path="url(#clipPath23)" stroke-width="3"><g stroke-width="3"><g stroke-width="3"><g clip-path="url(#clipPath31)" opacity="0" stroke-width="3"><g transform="translate(30.6 101)" stroke-width="3"><path d="m0 0 3.4-3 1.2 2.4 1.5-2.4 1.6 2.301 1.1-2.301 1.5 2.7 1.7-2 1.3 2 1.2-1.599 1.5 0.899 3.2 7.601-2.7 3.899-1.7-1.2-1.4 1.4-1.2-1.599-1.2 1.599-1.2-1.4-1.4 1.301-1.7-1.701-1 1.701-2.3-1.901-0.9 1.901-2.4-2z"/></g></g></g></g></g></g><g transform="matrix(1.1612 0 0 .98132 27.378 101.09)" stroke-width="3"><path d="M -0.0999,-0.9998 16,-1 19.2,6.601 16.5,10.5 0.1,8.601 Z" fill="none" stroke="#ffffff" stroke-width="3"/></g><g stroke-width="3"><g><g clip-path="url(#clipPath51)" stroke-width="3"><g stroke-width="3"><g stroke-width="3"><g clip-path="url(#clipPath59)" opacity="0" stroke-width="3"><g transform="translate(17.9 114)" stroke-width="3"><path d="m0 0-1.7-2.6-0.7-11 1.5-3.9 7.1-0.3 1 2.4 0.2 8.8v4l-1.4 2.6z"/></g></g></g></g></g></g><g transform="translate(17.9 114)"><path d="m0 0-1.7-2.6-0.7-11 1.5-3.9 7.1-0.3 1 2.4 0.2 8.8v4l-1.4 2.6z" fill="none" stroke="#ffffff" stroke-width="3"/></g><g><g clip-path="url(#clipPath79)"><g stroke-width="3"><g stroke-width="3"><g clip-path="url(#clipPath87)" opacity="0" stroke-width="3"><g transform="translate(25.3 107.4)" stroke-width="3"><path d="m0 0-2.5 3.7-6.6 0.3"/></g></g></g></g></g><g clip-path="url(#clipPath107)"><g stroke-width="3"><g stroke-width="3"><g clip-path="url(#clipPath115)" opacity="0" stroke-width="3"><g transform="translate(25.2 102.2)" stroke-width="3"><path d="m0 0-2.7-1.899-7 0.099"/></g></g></g></g></g><g clip-path="url(#clipPath135)"><g stroke-width="3"><g stroke-width="3"><g clip-path="url(#clipPath143)" opacity="0" stroke-width="3"><g transform="translate(23.6 113.7)" stroke-width="3"><path d="m0 0-0.8-2.6-0.3-10.799 1.6-4.101"/></g></g></g></g></g></g></g><g stroke-width=".75"><g clip-path="url(#clipPath163)"><g stroke-width="3"><g stroke-width="3"><g clip-path="url(#clipPath171)" opacity="0"><g transform="translate(25.2 111.2)" stroke-width="3"><path d="m0 0c1.1 0.6 2.3 1 3.5 1 1-0.1 1.8-0.7 2.2-1.6l-0.4-10.6c-0.9-1-2.1-1.699-3.5-1.8-0.7 0.101-1.4 0.2-2 0.4z"/></g></g><g clip-path="url(#clipPath191)" opacity="0"><g transform="translate(34 108.1)" stroke-width="3"><path d="m0 0c0.3-1.2 0.5-2.5 0.5-3.8 0-0.9-0.1-1.9-0.5-2.7"/></g></g><g clip-path="url(#clipPath211)" opacity="0"><g transform="translate(36.3 108.6)" stroke-width="3"><path d="m0 0c0.3-1.3 0.5-2.5 0.6-3.8 0-0.9-0.3-3-0.3-3"/></g></g><g clip-path="url(#clipPath231)" opacity="0"><g transform="translate(39,108.9)" stroke-width="3"><path d="m0 0c0.3-1.3 0.5-2.5 0.7-3.8 0.1-1 0-2-0.3-3"/></g></g><g clip-path="url(#clipPath251)" opacity="0"><g transform="translate(44.7 108.5)" stroke-width="3"><path d="m0 0c-0.1-1-0.1-2.1 0-3.1 0.1-1.1 0.1-2.2 0-3.2"/></g></g><g clip-path="url(#clipPath271)" opacity="0"><g transform="translate(46.8 108)" stroke-width="3"><path d="m0 0s0.3-2.5 0.4-3.7c0-0.8 0-1.5-0.2-2.2"/></g></g><g clip-path="url(#clipPath291)" opacity="0"><g transform="translate(60.6 99.9)" stroke-width="3"><path d="m0 0-6.5-4.4v-72.9c0.5 0.2 1 0.4 1.6 0.5 1 0.1 2.2 0.1 3.3 0 1.9-0.1 3.4-0.5 4.3-0.7l4.1 73.6-0.4 1.5z"/></g></g></g><g transform="translate(60.6 99.9)"><path d="m0 0-6.5-4.4v-72.9c0.5 0.2 1 0.4 1.6 0.5 1 0.1 2.2 0.1 3.3 0 1.9-0.1 3.4-0.5 4.3-0.7l4.1 73.6-0.4 1.5z" fill="none" stroke="#ffffff" stroke-width="3"/></g><g stroke-width="3"><g clip-path="url(#clipPath311)" opacity="0" stroke-width="3"><g transform="translate(59 23)" stroke-width="3"><path d="m0 0c-2.2 0.2-4.6 0.101-5.8-0.8-2.5-1.7-0.6-9.399-2.1-10.8-1.5-1.4-6.8 0.1-9.5 0.6s-10.6 10.2-10.6 10.2 6.4-16.8 11.8-18.2c3.5-0.899 19.7-3.8 22.8-3.399 1.2 0 2.2 1 2.1 2.2v0.099c1.5 0.3 3 0.401 4.5 0.5 1.2-0.099 5.3-1.2 5.3-1.2 0 0.901-0.1 5 0 6.2v1.5c0 0.201 0 0.3-0.1 0.5 0 0.201 0 0.3-0.1 0.5 0 0.201 0 0.3-0.1 0.5 0 0.201 0 0.3-0.1 0.5 0 0.201-0.1 0.3-0.1 0.5 0 0.201-0.1 0.3-0.1 0.5 0 0.201-0.1 0.3-0.1 0.5 0 0.201-0.1 0.3-0.1 0.5 0 0.1 0 0.201-0.1 0.3-2.2 0-8.7 0.101-10.5 1.401-2.1 1.5-1.1 6.099-2.4 6.399-0.4 0.4-2.5 0.801-4.7 1"/></g></g></g><g transform="translate(59 23)"><path d="m0 0c-2.2 0.2-4.6 0.101-5.8-0.8-2.5-1.7-0.6-9.399-2.1-10.8-1.5-1.4-6.8 0.1-9.5 0.6s-10.6 10.2-10.6 10.2 6.4-16.8 11.8-18.2c3.5-0.899 19.7-3.8 22.8-3.399 1.2 0 2.2 1 2.1 2.2v0.099c1.5 0.3 3 0.401 4.5 0.5 1.2-0.099 5.3-1.2 5.3-1.2 0 0.901-0.1 5 0 6.2v1.5c0 0.201 0 0.3-0.1 0.5 0 0.201 0 0.3-0.1 0.5 0 0.201 0 0.3-0.1 0.5 0 0.201 0 0.3-0.1 0.5 0 0.201-0.1 0.3-0.1 0.5 0 0.201-0.1 0.3-0.1 0.5 0 0.201-0.1 0.3-0.1 0.5 0 0.201-0.1 0.3-0.1 0.5 0 0.1 0 0.201-0.1 0.3-2.2 0-8.7 0.101-10.5 1.401-2.1 1.5-1.1 6.099-2.4 6.399-0.4 0.4-2.5 0.801-4.7 1z" fill="none" stroke="#ffffff" stroke-width="3"/></g><g stroke-width="3"><g clip-path="url(#clipPath331)" opacity="0" stroke-width="3"><g transform="translate(81.7 15.5)" stroke-width="3"><path d="m0 0s1.5-1.399 1.8-6.3c0.3-4.899-0.901-7-0.901-7l-5-0.599s-0.099 5.599 0 6.899c-0.099 2-0.399 3.9-0.799 5.9 0 0 1.4 1.8 2.5 1.6 0.799-0.1 1.6-0.3 2.4-0.5"/></g></g></g><g transform="translate(81.7 15.5)"><path d="m0 0s1.5-1.399 1.8-6.3c0.3-4.899-0.901-7-0.901-7l-5-0.599s-0.099 5.599 0 6.899c-0.099 2-0.399 3.9-0.799 5.9 0 0 1.4 1.8 2.5 1.6 0.799-0.1 1.6-0.3 2.4-0.5z" fill="none" stroke="#ffffff" stroke-width="3"/></g></g><g transform="translate(-.55096 15.71)" stroke-width=".75"><g stroke-width=".75"><g clip-path="url(#clipPath351)" opacity="0" stroke-width=".75"><g transform="translate(35.4 112.1)" stroke-width=".75"><path d="m0 0s-11.5 6.3-14.1 11.1-4.9 5.7-7.2 6.9-7.7 1.5-7.7 1.5 6 3.1 9.5 3.2c2.4 0 4.9-0.6 7.1-1.5 0 0-8.9 6.9-11 10.6s-2.5 8.1-4 10.5-5.6 8.3-5.6 8.3 7.6-5.2 9.4-5.3c2.6-0.4 5.1-1.4 7.2-2.8 1.7-1.4 3.4-3 4.8-4.7 0 0-6 7.9-8.9 15.1s-3.3 13.4-3.7 17-5.1 8.2-5.1 8.2 5-1.2 8.1-3.8c1.8-1.5 3.2-3.4 4-5.6-0.1 2.7-0.7 5.3-1.8 7.7-1.7 3.4-4.1 4.3-5 8.5-0.6 3.4-0.8 6.8-0.6 10.1 0 0 3.9-7.1 7.4-8.9s26.3-8.5 28.7-10.1c2-1.6 3.9-3.4 5.6-5.3-2.2 2.8-3.7 6-4.2 9.5-0.7 5.3 1.3 5.3 0.8 7.5s-3.4 6-3.4 6c3.1-2.4 5.8-5.2 8.2-8.3 3-4.3 1.7-7.5 5.7-10.2s8.7-4.3 9.6-5.5c1.2-1.3 2.4-2.5 3.7-3.7 0 0-4.3 4-4.5 9.2-0.1 3.7 0.1 7.4 0.6 11 0 0 5.2-8.9 8.8-10.5s10.1-4 15.5-12.8 2.4-11.6 2.4-11.6"/></g></g></g></g><g stroke-width="3"><g transform="translate(35.4 112.1)"><path d="m0 0s-11.5 6.3-14.1 11.1-4.9 5.7-7.2 6.9-7.7 1.5-7.7 1.5 6 3.1 9.5 3.2c2.4 0 4.9-0.6 7.1-1.5 0 0-8.9 6.9-11 10.6s-2.5 8.1-4 10.5-5.6 8.3-5.6 8.3 7.6-5.2 9.4-5.3c2.6-0.4 5.1-1.4 7.2-2.8 1.7-1.4 3.4-3 4.8-4.7 0 0-6 7.9-8.9 15.1s-3.3 13.4-3.7 17-5.1 8.2-5.1 8.2 5-1.2 8.1-3.8c1.8-1.5 3.2-3.4 4-5.6-0.1 2.7-0.7 5.3-1.8 7.7-1.7 3.4-4.1 4.3-5 8.5-0.6 3.4-0.8 6.8-0.6 10.1 0 0 3.9-7.1 7.4-8.9s26.3-8.5 28.7-10.1c2-1.6 3.9-3.4 5.6-5.3-2.2 2.8-3.7 6-4.2 9.5-0.7 5.3 1.3 5.3 0.8 7.5s-3.4 6-3.4 6c3.1-2.4 5.8-5.2 8.2-8.3 3-4.3 1.7-7.5 5.7-10.2s8.7-4.3 9.6-5.5c1.2-1.3 2.4-2.5 3.7-3.7 0 0-4.3 4-4.5 9.2-0.1 3.7 0.1 7.4 0.6 11 0 0 5.2-8.9 8.8-10.5s10.1-4 15.5-12.8 2.4-11.6 2.4-11.6" fill="none" stroke="#ffffff" stroke-width="3"/></g><g stroke-width="3"><g clip-path="url(#clipPath371)" opacity="0" stroke-width="3"><g transform="translate(32.3 119.4)" stroke-width="3"><path d="m0 0 8.7 5.8 1.2 6.1-8.5 6.4 3.1 6.6 7.8-1.2 6.2 6.4-4.7 9.1 7.9 5.4 5.4-7 9.4 2.6 1.8 8.4h8.7l2.101-8.2 7-3.1 7.299 6.7 7.1-4.8-3.3-8 4.1-5.7 9.5 0.6 3.4-7-9.2-7-0.399-5.7 8.699-6-2-7.6-10 0.6-5.8-5.7 3.9-9.6-6.9-3.7-7.399 6.2-7.601-3.1-2.3-7.9-8.4-0.6-2.1 9.1-6.4 2.4-9.6-6.6-5.1 5 3.9 9.3-4 5.8-10.3-1.2z"/></g></g></g><g transform="translate(32.3 119.4)"><path d="m0 0 8.7 5.8 1.2 6.1-8.5 6.4 3.1 6.6 7.8-1.2 6.2 6.4-4.7 9.1 7.9 5.4 5.4-7 9.4 2.6 1.8 8.4h8.7l2.101-8.2 7-3.1 7.299 6.7 7.1-4.8-3.3-8 4.1-5.7 9.5 0.6 3.4-7-9.2-7-0.399-5.7 8.699-6-2-7.6-10 0.6-5.8-5.7 3.9-9.6-6.9-3.7-7.399 6.2-7.601-3.1-2.3-7.9-8.4-0.6-2.1 9.1-6.4 2.4-9.6-6.6-5.1 5 3.9 9.3-4 5.8-10.3-1.2z" fill="none" stroke="#ffffff" stroke-width="3"/></g><g stroke-width="3"><g clip-path="url(#clipPath391)" opacity="0" stroke-width="3"><g transform="translate(74.4 148.1)" stroke-width="3"><path d="m0 0c10.99 0 19.899-8.91 19.899-19.9 0-10.991-8.909-19.9-19.899-19.9-10.991 0-19.9 8.909-19.9 19.9 0 10.99 8.909 19.9 19.9 19.9"/></g></g></g><g transform="translate(74.4 148.1)"><path d="m0 0c10.99 0 19.899-8.91 19.899-19.9 0-10.991-8.909-19.9-19.899-19.9-10.991 0-19.9 8.909-19.9 19.9 0 10.99 8.909 19.9 19.9 19.9z" fill="none" stroke="#ffffff" stroke-width="3"/></g><g stroke-width="3"><g clip-path="url(#clipPath411)" opacity="0"><g transform="translate(42 108.7)" stroke-width="3"><path d="m0 0c0.3-1.2 0.5-2.4 0.5-3.6-0.1-1.1-0.2-2.1-0.5-3.2"/></g></g><g clip-path="url(#clipPath431)" opacity="0"><g transform="translate(116.5 31.8)" stroke-width="3"><path d="m0 0s-36.4 57.199-36.4 60.1c-0.2 2.099 0.9 4.099 2.8 5 1.2 0.5 4.4 1.599 6.5-0.701 2.1-2.299 36-57.799 37.9-58.399 1.2-0.4 2.2-1 3.1-1.9 0.4 0.799 1.4 1.2 2.2 0.799 1.7-0.599 1.9-2.599 2.4-3.599 0.4-0.601 1-1.101 1.7-1.3l-17.2-22.301s-2.1 9.5-2.4 12.901c-0.3 3.4-0.6 9.4-0.6 9.4"/></g></g></g><g transform="translate(116.5 31.8)"><path d="m0 0s-36.4 57.199-36.4 60.1c-0.2 2.099 0.9 4.099 2.8 5 1.2 0.5 4.4 1.599 6.5-0.701 2.1-2.299 36-57.799 37.9-58.399 1.2-0.4 2.2-1 3.1-1.9 0.4 0.799 1.4 1.2 2.2 0.799 1.7-0.599 1.9-2.599 2.4-3.599 0.4-0.601 1-1.101 1.7-1.3l-17.2-22.301s-2.1 9.5-2.4 12.901c-0.3 3.4-0.6 9.4-0.6 9.4z" fill="none" stroke="#ffffff" stroke-width="3"/></g><g stroke-width="3"><g clip-path="url(#clipPath451)" opacity="0" stroke-width="3"><g transform="translate(129.6 18.7)" stroke-width="3"><path d="m0 0 9.4 13 1.3-2.2-1.099-0.9s6.5-8 7.099-12.5c0.601-4.5-1.8-6.5-1.8-6.5s-7.799 8.1-9.2 8.5c-1.099 0.201-2.3 0.1-3.3-0.4z"/></g></g></g><g transform="translate(129.6 18.7)"><path d="m0 0 9.4 13 1.3-2.2-1.099-0.9s6.5-8 7.099-12.5c0.601-4.5-1.8-6.5-1.8-6.5s-7.799 8.1-9.2 8.5c-1.099 0.201-2.3 0.1-3.3-0.4z" fill="none" stroke="#ffffff" stroke-width="3"/></g><g stroke-width="3"><g clip-path="url(#clipPath471)" opacity="0" stroke-width="3"><g transform="translate(121,7.6002)" stroke-width="3"><path d="m0 0s6.6 9.7 7.5 9.5c0.7-0.3 1.3-0.601 1.9-1.101 0 0-1.3-1 0-2.5s8.6-9.699 8.6-9.699-11-1-12.4-0.7-5.6 4.5-5.6 4.5"/></g></g></g><g transform="translate(121,7.6002)"><path d="m0 0s6.6 9.7 7.5 9.5c0.7-0.3 1.3-0.601 1.9-1.101 0 0-1.3-1 0-2.5s8.6-9.699 8.6-9.699-11-1-12.4-0.7-5.6 4.5-5.6 4.5z" fill="none" stroke="#ffffff" stroke-width="3"/></g><g stroke-width="3"><g clip-path="url(#clipPath491)" opacity="0"><g transform="translate(127.4 33.7)" stroke-width="3"><path d="m0 0-0.9-1.1 3.9-3.299 0.8 1 0.899-1-6.199-7.701-1 0.9 0.8 1.4-3.8 3.6-0.7-0.8-1 1.2 6 6.7z"/></g></g><g clip-path="url(#clipPath511)" opacity="0"><g transform="translate(90.5 91.8)" stroke-width="3"><path d="m0 0s31.1-51.2 31.4-53c0.3-1.801 0-3.101-1.4-3.7-1.4-0.601-2.8-0.5-4.5 1.7-1.7 2.199-30.9 51-30.9 51s2.7 0.6 3.2 1.199z"/></g></g><g clip-path="url(#clipPath531)" opacity="0"><g transform="translate(90.7 89.3)" stroke-width="3"><path d="m0 0s28.399-48.601 28.7-49.301c0.3-0.699 0.5-1.8 0-2.399-0.5-0.601-2.2-0.101-2.801 0.899-0.599 1-29.599 48.301-29.599 48.301 0.7 0.199 1.4 0.5 2 0.899 0.599 0.5 1.7 1.601 1.7 1.601"/></g></g></g></g><g transform="translate(79.7 140.7)" stroke-width=".75"><path d="m0 0c0.2 0 0.399 0 0.5-0.1 1.2-0.2 2.3-0.6 3.3-1.3 1.099-0.8 2-1.7 2.599-2.9 0.401-0.8 0.701-1.7 0.801-2.7 0.199-3.1-1.1-5.6-3.6-7.3-0.8-0.5-1.4-0.8-2.4-1 2.5-3.2 5-6.5 7.4-9.7h-2.6c-0.101 0-0.101 0-0.2 0.1-2.5 3.2-4.901 6.5-7.401 9.7 0 0.1-0.099 0.1-0.099 0.2v1.9h2c0.7 0 1.3 0.2 1.9 0.5 1.5 1 2.4 2.4 2.699 4.1 0.301 2.2-0.599 4.2-2.599 5.4-0.8 0.5-1.6 0.7-2.401 0.8h-7.999v-4.4h4.1v-8.5h-4.1v-9.8h-8.3v9.6c0 0.2 0 0.2-0.2 0.2h-4.3v8.5h6.7v-2.2h-4.4v-4.1h4.5v-9.8h3.9v9.8h4c0.1 0 0.2 0 0.2 0.2v4h-4.1v8.9c3.2-0.1 6.6-0.1 10.1-0.1" fill="#ffffff" fill-rule="evenodd"/></g></g></g></g></svg>
