<svg xmlns="http://www.w3.org/2000/svg" width="196" height="279.2"><symbol id="logo"><defs><clipPath id="A"><path d="M0 209.4h147V0H0z"/></clipPath><clipPath id="B"><path d="M30.6 111.7h19.2V98H30.6z"/></clipPath><clipPath id="C"><path d="M0 209.4h147V0H0z"/></clipPath><clipPath id="D"><path d="M15.5 114h9.8V96.2h-9.8z"/></clipPath><clipPath id="E"><path d="M0 209.4h147V0H0z"/></clipPath><clipPath id="F"><path d="m16.2 111.4h9.1v-4h-9.1z"/></clipPath><clipPath id="G"><path d="M0 209.4h147V0H0z"/></clipPath><clipPath id="H"><path d="m15.5 102.2h9.7v-1.9h-9.7z"/></clipPath><clipPath id="I"><path d="M0 209.4h147V0H0z"/></clipPath><clipPath id="J"><path d="M22.5 113.7h1.6V96.2h-1.6z"/></clipPath><clipPath id="K"><path d="M0 209.4h147V0H0z"/></clipPath><clipPath id="L"><path d="M25 112.2h5.9v-14H25z"/></clipPath><clipPath id="M"><path d="M34 108.1h.5v-6.5H34z"/></clipPath><clipPath id="N"><path d="M36.3 108.6h.6v-6.8h-.6z"/></clipPath><clipPath id="O"><path d="M39 108.9h.737v-6.8H39z"/></clipPath><clipPath id="P"><path d="M44.625 108.5h.15v-6.3h-.15z"/></clipPath><clipPath id="Q"><path d="M46.8 108h.4v-5.9h-.4z"/></clipPath><clipPath id="R"><path d="M54.1 99.9h13.3V22.4H54.1z"/></clipPath><clipPath id="S"><path d="M31 23.086h46.5V.562H31z"/></clipPath><clipPath id="T"><path d="M76.8 16.016h6.748V1.6H76.8z"/></clipPath><clipPath id="U"><path d="M2.4 207.1h94.131v-95H2.4z"/></clipPath><clipPath id="V"><path d="M32.3 168h84.2V88.4H32.3z"/></clipPath><clipPath id="W"><path d="M54.5 148.1h39.8v-39.8H54.5z"/></clipPath><clipPath id="X"><path d="M42 108.7h.5v-6.8H42z"/></clipPath><clipPath id="Y"><path d="M80.077 97.605H136.7V9.5H80.077z"/></clipPath><clipPath id="Z"><path d="M129.6 31.7h16.796V9.6H129.6z"/></clipPath><clipPath id="a"><path d="M121 17.103h18V3.044h-18z"/></clipPath><clipPath id="b"><path d="m120.2 34.6h11.9v-13h-11.9z"/></clipPath><clipPath id="c"><path d="M85.1 91.8h36.906V34.785H85.1z"/></clipPath><clipPath id="d"><path d="M87 89.3h32.705V37.341H87z"/></clipPath><path id="e" d="M60.6 99.9l-6.5-4.4V22.6c.5.2 1 .4 1.6.5 1 .1 2.2.1 3.3 0 1.9-.1 3.4-.5 4.3-.7L67.4 96l-.4 1.5z"/><path id="f" d="M35.4 112.1s-11.5 6.3-14.1 11.1-4.9 5.7-7.2 6.9-7.7 1.5-7.7 1.5 6 3.1 9.5 3.2c2.4 0 4.9-.6 7.1-1.5 0 0-8.9 6.9-11 10.6s-2.5 8.1-4 10.5-5.6 8.3-5.6 8.3 7.6-5.2 9.4-5.3c2.6-.4 5.1-1.4 7.2-2.8 1.7-1.4 3.4-3 4.8-4.7 0 0-6 7.9-8.9 15.1s-3.3 13.4-3.7 17-5.1 8.2-5.1 8.2 5-1.2 8.1-3.8c1.8-1.5 3.2-3.4 4-5.6-.1 2.7-.7 5.3-1.8 7.7-1.7 3.4-4.1 4.3-5 8.5-.6 3.4-.8 6.8-.6 10.1 0 0 3.9-7.1 7.4-8.9s26.3-8.5 28.7-10.1c2-1.6 3.9-3.4 5.6-5.3-2.2 2.8-3.7 6-4.2 9.5-.7 5.3 1.3 5.3.8 7.5s-3.4 6-3.4 6c3.1-2.4 5.8-5.2 8.2-8.3 3-4.3 1.7-7.5 5.7-10.2s8.7-4.3 9.6-5.5a64.56 64.56 0 0 1 3.7-3.7s-4.3 4-4.5 9.2c-.1 3.7.1 7.4.6 11 0 0 5.2-8.9 8.8-10.5s10.1-4 15.5-12.8 2.4-11.6 2.4-11.6"/><path id="g" d="M32.3 119.4l8.7 5.8 1.2 6.1-8.5 6.4 3.1 6.6 7.8-1.2 6.2 6.4-4.7 9.1L54 164l5.4-7 9.4 2.6 1.8 8.4h8.7l2.101-8.2 7-3.1 7.299 6.7 7.1-4.8-3.3-8 4.1-5.7 9.5.6 3.4-7-9.2-7-.399-5.7 8.699-6-2-7.6-10 .6-5.8-5.7 3.9-9.6-6.9-3.7-7.399 6.2-7.601-3.1-2.3-7.9-8.4-.6-2.1 9.1-6.4 2.4-9.6-6.6-5.1 5 3.9 9.3-4 5.8-10.3-1.2z"/><path id="h" d="M129.6 18.7l9.4 13 1.3-2.2-1.099-.9s6.5-8 7.099-12.5-1.8-6.5-1.8-6.5-7.799 8.1-9.2 8.5c-1.099.201-2.3.1-3.3-.4z"/></defs><g transform="matrix(1.3333 0 0 -1.3333 0 279.2)"><g clip-path="url(#A)"><g clip-path="url(#B)" style="opacity:0"><path d="M30.6 101l3.4-3 1.2 2.4 1.5-2.4 1.6 2.301L39.4 98l1.5 2.7 1.7-2 1.3 2 1.2-1.599 1.5.899 3.2 7.601-2.7 3.899-1.7-1.2-1.4 1.4-1.2-1.599-1.2 1.599-1.2-1.4-1.4 1.301-1.7-1.701-1 1.701L34 109.7l-.9 1.901-2.4-2z"/></g></g><path d="M27.262 100.109h18.695l3.716 7.459-3.135 3.826-19.044-1.863z" stroke-width="3.225" style="fill:none;stroke:var(--color1)"/><g clip-path="url(#C)"><g clip-path="url(#D)" style="opacity:0"><path d="M17.9 114l-1.7-2.6-.7-11 1.5-3.9 7.1-.3 1 2.4.2 8.8v4l-1.4 2.6z"/></g></g><path d="M17.9 114l-1.7-2.6-.7-11 1.5-3.9 7.1-.3 1 2.4.2 8.8v4l-1.4 2.6z" style="fill:none;stroke:var(--color1);stroke-width:3"/><g clip-path="url(#E)"><g clip-path="url(#F)" style="opacity:0"><path d="M25.3 107.4l-2.5 3.7-6.6.3"/></g></g><g clip-path="url(#G)"><g clip-path="url(#H)" style="opacity:0"><path d="M25.2 102.2l-2.7-1.899-7 .099"/></g></g><g clip-path="url(#I)"><g clip-path="url(#J)" style="opacity:0"><path d="M23.6 113.7l-.8-2.6-.3-10.799 1.6-4.101"/></g></g><g clip-path="url(#K)"><g clip-path="url(#L)" style="opacity:0"><path d="M25.2 111.2c1.1.6 2.3 1 3.5 1 1-.1 1.8-.7 2.2-1.6l-.4-10.6c-.9-1-2.1-1.699-3.5-1.8-.7.101-1.4.2-2 .4z"/></g><g clip-path="url(#M)" style="opacity:0"><path d="M34 108.1c.3-1.2.5-2.5.5-3.8 0-.9-.1-1.9-.5-2.7"/></g><g clip-path="url(#N)" style="opacity:0"><path d="M36.3 108.6c.3-1.3.5-2.5.6-3.8 0-.9-.3-3-.3-3"/></g><g clip-path="url(#O)" style="opacity:0"><path d="M39 108.9l.7-3.8c.1-1 0-2-.3-3"/></g><g clip-path="url(#P)" style="opacity:0"><path d="M44.7 108.5c-.1-1-.1-2.1 0-3.1.1-1.1.1-2.2 0-3.2"/></g><g clip-path="url(#Q)" style="opacity:0"><path d="M46.8 108l.4-3.7c0-.8 0-1.5-.2-2.2"/></g><g clip-path="url(#R)" style="opacity:0"><use href="#e"/></g><use href="#e" style="fill:none;stroke:var(--color1);stroke-width:3"/><g clip-path="url(#S)" style="opacity:0"><path d="M59 23c-2.2.2-4.6.101-5.8-.8-2.5-1.7-.6-9.399-2.1-10.8s-6.8.1-9.5.6S31 22.2 31 22.2 37.4 5.4 42.8 4C46.3 3.101 62.5.2 65.6.601c1.2 0 2.2 1 2.1 2.2V2.9c1.5.3 3 .401 4.5.5 1.2-.099 5.3-1.2 5.3-1.2 0 .901-.1 5 0 6.2v1.5c0 .201 0 .3-.1.5 0 .201 0 .3-.1.5 0 .201 0 .3-.1.5 0 .201 0 .3-.1.5 0 .201-.1.3-.1.5s-.1.3-.1.5-.1.3-.1.5-.1.3-.1.5c0 .1 0 .201-.1.3-2.2 0-8.7.101-10.5 1.401C64 17.101 65 21.7 63.7 22c-.4.4-2.5.801-4.7 1"/></g><path d="M59 23c-2.2.2-4.6.101-5.8-.8-2.5-1.7-.6-9.399-2.1-10.8s-6.8.1-9.5.6S31 22.2 31 22.2 37.4 5.4 42.8 4C46.3 3.101 62.5.2 65.6.601c1.2 0 2.2 1 2.1 2.2V2.9c1.5.3 3 .401 4.5.5 1.2-.099 5.3-1.2 5.3-1.2 0 .901-.1 5 0 6.2v1.5c0 .201 0 .3-.1.5 0 .201 0 .3-.1.5 0 .201 0 .3-.1.5 0 .201 0 .3-.1.5 0 .201-.1.3-.1.5s-.1.3-.1.5-.1.3-.1.5-.1.3-.1.5c0 .1 0 .201-.1.3-2.2 0-8.7.101-10.5 1.401C64 17.101 65 21.7 63.7 22c-.4.4-2.5.801-4.7 1z" style="fill:none;stroke:var(--color1);stroke-width:3"/><g clip-path="url(#T)" style="opacity:0"><path d="M81.7 15.5s1.5-1.399 1.8-6.3-.901-7-.901-7l-5-.599V8.5c-.099 2-.399 3.9-.799 5.9 0 0 1.4 1.8 2.5 1.6.799-.1 1.6-.3 2.4-.5"/></g><path d="M81.7 15.5s1.5-1.399 1.8-6.3-.901-7-.901-7l-5-.599V8.5c-.099 2-.399 3.9-.799 5.9 0 0 1.4 1.8 2.5 1.6.799-.1 1.6-.3 2.4-.5z" style="fill:none;stroke:var(--color1);stroke-width:3"/><g clip-path="url(#U)" transform="translate(-.551 15.71)" style="opacity:0"><use href="#f"/></g><use href="#f" style="fill:none;stroke:var(--color1);stroke-width:3"/><g clip-path="url(#V)" style="opacity:0"><use href="#g"/></g><use href="#g" style="fill:none;stroke:var(--color1);stroke-width:3"/><g clip-path="url(#W)" style="opacity:0"><path d="M74.4 148.1c10.99 0 19.899-8.91 19.899-19.9S85.39 108.3 74.4 108.3s-19.9 8.909-19.9 19.9 8.909 19.9 19.9 19.9"/></g><path d="M74.4 148.1c10.99 0 19.899-8.91 19.899-19.9S85.39 108.3 74.4 108.3s-19.9 8.909-19.9 19.9 8.909 19.9 19.9 19.9z" style="fill:none;stroke:var(--color1);stroke-width:3"/><g clip-path="url(#X)" style="opacity:0"><path d="M42 108.7c.3-1.2.5-2.4.5-3.6-.1-1.1-.2-2.1-.5-3.2"/></g><g clip-path="url(#Y)" style="opacity:0"><path d="M116.5 31.8S80.1 88.999 80.1 91.9c-.2 2.099.9 4.099 2.8 5 1.2.5 4.4 1.599 6.5-.701s36-57.799 37.9-58.399c1.2-.4 2.2-1 3.1-1.9.4.799 1.4 1.2 2.2.799 1.7-.599 1.9-2.599 2.4-3.599.4-.601 1-1.101 1.7-1.3L119.5 9.499s-2.1 9.5-2.4 12.901-.6 9.4-.6 9.4"/></g><path d="M116.5 31.8S80.1 88.999 80.1 91.9c-.2 2.099.9 4.099 2.8 5 1.2.5 4.4 1.599 6.5-.701s36-57.799 37.9-58.399c1.2-.4 2.2-1 3.1-1.9.4.799 1.4 1.2 2.2.799 1.7-.599 1.9-2.599 2.4-3.599.4-.601 1-1.101 1.7-1.3L119.5 9.499s-2.1 9.5-2.4 12.901-.6 9.4-.6 9.4z" style="fill:none;stroke:var(--color1);stroke-width:3"/><g clip-path="url(#Z)" style="opacity:0"><use href="#h"/></g><use href="#h" style="fill:none;stroke:var(--color1);stroke-width:3"/><g clip-path="url(#a)" style="opacity:0"><path d="M121 7.6s6.6 9.7 7.5 9.5c.7-.3 1.3-.601 1.9-1.101 0 0-1.3-1 0-2.5L139 3.8s-11-1-12.4-.7-5.6 4.5-5.6 4.5"/></g><path d="M121 7.6s6.6 9.7 7.5 9.5c.7-.3 1.3-.601 1.9-1.101 0 0-1.3-1 0-2.5L139 3.8s-11-1-12.4-.7-5.6 4.5-5.6 4.5z" style="fill:none;stroke:var(--color1);stroke-width:3"/><g clip-path="url(#b)" style="opacity:0"><path d="M127.4 33.7l-.9-1.1 3.9-3.299.8 1 .899-1L125.9 21.6l-1 .9.8 1.4-3.8 3.6-.7-.8-1 1.2 6 6.7z"/></g><g clip-path="url(#c)" style="opacity:0"><path d="M90.5 91.8l31.4-53c.3-1.801 0-3.101-1.4-3.7s-2.8-.5-4.5 1.7-30.9 51-30.9 51 2.7.6 3.2 1.199z"/></g><g clip-path="url(#d)" style="opacity:0"><path d="M90.7 89.3l28.7-49.301c.3-.699.5-1.8 0-2.399s-2.2-.101-2.801.899L87 86.8c.7.199 1.4.5 2 .899.599.5 1.7 1.601 1.7 1.601"/></g><path d="M79.7 140.7c.2 0 .399 0 .5-.1 1.2-.2 2.3-.6 3.3-1.3 1.099-.8 2-1.7 2.599-2.9.401-.8.701-1.7.801-2.7.199-3.1-1.1-5.6-3.6-7.3-.8-.5-1.4-.8-2.4-1l7.4-9.7h-2.6c-.101 0-.101 0-.2.1l-7.401 9.7c0 .1-.099.1-.099.2v1.9h2c.7 0 1.3.2 1.9.5 1.5 1 2.4 2.4 2.699 4.1.301 2.2-.599 4.2-2.599 5.4-.8.5-1.6.7-2.401.8H71.6V134h4.1v-8.5h-4.1v-9.8h-8.3v9.6c0 .2 0 .2-.2.2h-4.3v8.5h6.7v-2.2h-4.4v-4.1h4.5v-9.8h3.9v9.8h4c.1 0 .2 0 .2.2v4h-4.1v8.9c3.2-.1 6.6-.1 10.1-.1" fill="var(--color1)" fill-rule="evenodd"/></g></g></symbol></svg>