<?xml version="1.0" encoding="UTF-8"?>
<!-- Created with Inkscape (http://www.inkscape.org/) -->
<svg width="75.017mm" height="30.14mm" version="1.1" viewBox="0 0 75.017 30.14" xmlns="http://www.w3.org/2000/svg" xmlns:xlink="http://www.w3.org/1999/xlink">
 <defs>
  <clipPath id="id5">
   <path d="m225 50h18v17.73h-18z"/>
  </clipPath>
  <clipPath id="id6">
   <path d="m197.18 22.73h27.82v27.27h-27.82z"/>
  </clipPath>
  <clipPath id="id7">
   <path d="m207 22.73h45.68v45h-45.68z"/>
  </clipPath>
 </defs>
 <g transform="translate(-9.8769 -3.0357)">
  <g transform="matrix(.35278 0 0 .35278 -33.937 -4.9845)">
   <g fill="#fff">
    <g transform="translate(121.07 107.83)">
     <path d="m3.125 0v-29.969h5.8281v14.25l12.609-14.297h6.4219l-11.5 13.328 12.219 16.688h-6.5625l-9.3281-12.969-3.8594 4.0156v8.9531z"/>
    </g>
    <g transform="translate(149.34 107.83)">
     <path d="m3.125 0v-30.016h5.8281v30.016z"/>
    </g>
    <g transform="translate(161.43 107.83)">
     <path d="m21-22.141c-0.19922-0.19531-0.55859-0.46094-1.0781-0.79688-0.52344-0.34375-1.1562-0.67578-1.9062-1-0.74219-0.32031-1.5469-0.59766-2.4219-0.82812-0.875-0.22656-1.7617-0.34375-2.6562-0.34375-1.6055 0-2.8047 0.29688-3.5938 0.89062-0.79297 0.59375-1.1875 1.4297-1.1875 2.5 0 0.61719 0.14453 1.1328 0.4375 1.5469 0.30078 0.40625 0.73438 0.76562 1.2969 1.0781 0.5625 0.30469 1.2695 0.58594 2.125 0.84375 0.86328 0.25 1.8594 0.51562 2.9844 0.79688 1.4688 0.39844 2.8008 0.82031 4 1.2656 1.1953 0.44922 2.207 1.0117 3.0312 1.6875 0.83203 0.67969 1.4727 1.4922 1.9219 2.4375 0.45703 0.9375 0.6875 2.1016 0.6875 3.4844 0 1.6055-0.30469 2.9805-0.90625 4.125-0.60547 1.1367-1.4219 2.0586-2.4531 2.7656-1.0312 0.69922-2.2188 1.2148-3.5625 1.5469-1.3359 0.32031-2.7305 0.48438-4.1875 0.48438-2.2617 0-4.4922-0.33984-6.6875-1.0156-2.1992-0.67578-4.168-1.6328-5.9062-2.875l2.5781-5.0312c0.25 0.25 0.70312 0.58594 1.3594 1 0.66406 0.40625 1.4453 0.8125 2.3438 1.2188 0.90625 0.40625 1.9062 0.75 3 1.0312 1.1016 0.28125 2.2344 0.42188 3.3906 0.42188 3.207 0 4.8125-1.0234 4.8125-3.0781 0-0.64453-0.18359-1.1914-0.54688-1.6406-0.36719-0.45703-0.88672-0.85156-1.5625-1.1875-0.67969-0.34375-1.4961-0.65625-2.4531-0.9375-0.96094-0.28125-2.0273-0.59375-3.2031-0.9375-1.4375-0.38281-2.6875-0.8125-3.75-1.2812-1.0547-0.46875-1.9336-1.0156-2.6406-1.6406-0.69922-0.63281-1.2266-1.3672-1.5781-2.2031-0.35547-0.83203-0.53125-1.8281-0.53125-2.9844 0-1.5195 0.28125-2.8672 0.84375-4.0469 0.5625-1.1875 1.3438-2.1758 2.3438-2.9688 1-0.78906 2.1602-1.3906 3.4844-1.7969 1.3203-0.40625 2.75-0.60938 4.2812-0.60938 2.1016 0 4.0391 0.33594 5.8125 1 1.7812 0.65625 3.332 1.4375 4.6562 2.3438z"/>
    </g>
    <g transform="translate(187.33 107.83)"></g>
    <g transform="translate(197.47 107.83)">
     <path d="m25.578-24.891h-9.6094v24.891h-5.7812v-24.891h-9.5938v-5.125h24.984z"/>
    </g>
    <g transform="translate(223.63 107.83)">
     <path d="m15.938 0.21875c-2.1992 0-4.1953-0.42578-5.9844-1.2812-1.793-0.86328-3.3281-2.0078-4.6094-3.4375-1.2812-1.4258-2.2773-3.0508-2.9844-4.875-0.69922-1.832-1.0469-3.707-1.0469-5.625 0-2 0.36719-3.9141 1.1094-5.75 0.75-1.832 1.7812-3.4531 3.0938-4.8594s2.8672-2.5234 4.6719-3.3594c1.8008-0.83203 3.7578-1.25 5.875-1.25 2.1641 0 4.1445 0.44531 5.9375 1.3281 1.7891 0.88672 3.3164 2.0469 4.5781 3.4844 1.2695 1.4375 2.2539 3.0742 2.9531 4.9062 0.70703 1.8359 1.0625 3.6953 1.0625 5.5781 0 2-0.36719 3.9141-1.0938 5.7344-0.73047 1.8125-1.7461 3.418-3.0469 4.8125-1.293 1.3984-2.8398 2.5117-4.6406 3.3438-1.8047 0.83594-3.7617 1.25-5.875 1.25zm-8.7031-15.219c0 1.293 0.19141 2.5469 0.57812 3.7656 0.39453 1.2109 0.96875 2.2773 1.7188 3.2031 0.75 0.92969 1.6641 1.6797 2.75 2.25 1.082 0.5625 2.3125 0.84375 3.6875 0.84375 1.4141 0 2.6641-0.28516 3.75-0.85938 1.082-0.58203 1.9922-1.3516 2.7344-2.3125 0.75-0.95703 1.3125-2.0352 1.6875-3.2344 0.38281-1.1953 0.57812-2.4141 0.57812-3.6562 0-1.3008-0.20312-2.5547-0.60938-3.7656-0.40625-1.207-0.98438-2.2734-1.7344-3.2031-0.74219-0.9375-1.6562-1.6758-2.75-2.2188-1.0859-0.55078-2.3047-0.82812-3.6562-0.82812-1.4062 0-2.6641 0.29297-3.7656 0.875-1.0938 0.57422-2.0078 1.3359-2.7344 2.2812-0.73047 0.9375-1.2891 2.0078-1.6719 3.2031-0.375 1.1992-0.5625 2.418-0.5625 3.6562z"/>
    </g>
    <g transform="translate(255.58 107.83)">
     <path d="m15.938 0.21875c-2.1992 0-4.1953-0.42578-5.9844-1.2812-1.793-0.86328-3.3281-2.0078-4.6094-3.4375-1.2812-1.4258-2.2773-3.0508-2.9844-4.875-0.69922-1.832-1.0469-3.707-1.0469-5.625 0-2 0.36719-3.9141 1.1094-5.75 0.75-1.832 1.7812-3.4531 3.0938-4.8594s2.8672-2.5234 4.6719-3.3594c1.8008-0.83203 3.7578-1.25 5.875-1.25 2.1641 0 4.1445 0.44531 5.9375 1.3281 1.7891 0.88672 3.3164 2.0469 4.5781 3.4844 1.2695 1.4375 2.2539 3.0742 2.9531 4.9062 0.70703 1.8359 1.0625 3.6953 1.0625 5.5781 0 2-0.36719 3.9141-1.0938 5.7344-0.73047 1.8125-1.7461 3.418-3.0469 4.8125-1.293 1.3984-2.8398 2.5117-4.6406 3.3438-1.8047 0.83594-3.7617 1.25-5.875 1.25zm-8.7031-15.219c0 1.293 0.19141 2.5469 0.57812 3.7656 0.39453 1.2109 0.96875 2.2773 1.7188 3.2031 0.75 0.92969 1.6641 1.6797 2.75 2.25 1.082 0.5625 2.3125 0.84375 3.6875 0.84375 1.4141 0 2.6641-0.28516 3.75-0.85938 1.082-0.58203 1.9922-1.3516 2.7344-2.3125 0.75-0.95703 1.3125-2.0352 1.6875-3.2344 0.38281-1.1953 0.57812-2.4141 0.57812-3.6562 0-1.3008-0.20312-2.5547-0.60938-3.7656-0.40625-1.207-0.98438-2.2734-1.7344-3.2031-0.74219-0.9375-1.6562-1.6758-2.75-2.2188-1.0859-0.55078-2.3047-0.82812-3.6562-0.82812-1.4062 0-2.6641 0.29297-3.7656 0.875-1.0938 0.57422-2.0078 1.3359-2.7344 2.2812-0.73047 0.9375-1.2891 2.0078-1.6719 3.2031-0.375 1.1992-0.5625 2.418-0.5625 3.6562z"/>
    </g>
    <g transform="translate(287.53 107.83)">
     <path d="m3.125 0v-30.016h5.8281v24.906h15.312v5.1094z"/>
    </g>
    <g transform="translate(312.2 107.83)">
     <path d="m21-22.141c-0.19922-0.19531-0.55859-0.46094-1.0781-0.79688-0.52344-0.34375-1.1562-0.67578-1.9062-1-0.74219-0.32031-1.5469-0.59766-2.4219-0.82812-0.875-0.22656-1.7617-0.34375-2.6562-0.34375-1.6055 0-2.8047 0.29688-3.5938 0.89062-0.79297 0.59375-1.1875 1.4297-1.1875 2.5 0 0.61719 0.14453 1.1328 0.4375 1.5469 0.30078 0.40625 0.73438 0.76562 1.2969 1.0781 0.5625 0.30469 1.2695 0.58594 2.125 0.84375 0.86328 0.25 1.8594 0.51562 2.9844 0.79688 1.4688 0.39844 2.8008 0.82031 4 1.2656 1.1953 0.44922 2.207 1.0117 3.0312 1.6875 0.83203 0.67969 1.4727 1.4922 1.9219 2.4375 0.45703 0.9375 0.6875 2.1016 0.6875 3.4844 0 1.6055-0.30469 2.9805-0.90625 4.125-0.60547 1.1367-1.4219 2.0586-2.4531 2.7656-1.0312 0.69922-2.2188 1.2148-3.5625 1.5469-1.3359 0.32031-2.7305 0.48438-4.1875 0.48438-2.2617 0-4.4922-0.33984-6.6875-1.0156-2.1992-0.67578-4.168-1.6328-5.9062-2.875l2.5781-5.0312c0.25 0.25 0.70312 0.58594 1.3594 1 0.66406 0.40625 1.4453 0.8125 2.3438 1.2188 0.90625 0.40625 1.9062 0.75 3 1.0312 1.1016 0.28125 2.2344 0.42188 3.3906 0.42188 3.207 0 4.8125-1.0234 4.8125-3.0781 0-0.64453-0.18359-1.1914-0.54688-1.6406-0.36719-0.45703-0.88672-0.85156-1.5625-1.1875-0.67969-0.34375-1.4961-0.65625-2.4531-0.9375-0.96094-0.28125-2.0273-0.59375-3.2031-0.9375-1.4375-0.38281-2.6875-0.8125-3.75-1.2812-1.0547-0.46875-1.9336-1.0156-2.6406-1.6406-0.69922-0.63281-1.2266-1.3672-1.5781-2.2031-0.35547-0.83203-0.53125-1.8281-0.53125-2.9844 0-1.5195 0.28125-2.8672 0.84375-4.0469 0.5625-1.1875 1.3438-2.1758 2.3438-2.9688 1-0.78906 2.1602-1.3906 3.4844-1.7969 1.3203-0.40625 2.75-0.60938 4.2812-0.60938 2.1016 0 4.0391 0.33594 5.8125 1 1.7812 0.65625 3.332 1.4375 4.6562 2.3438z"/>
    </g>
   </g>
   <g clip-path="url(#id5)">
    <path d="m241.52 64.598c-0.57032-0.5-0.8086-1.3203-0.79297-2.0859l0.36328 0.36719c0.46484 0.46484 0.60937 1.1289 0.42969 1.7188zm-0.42969 0.72266-0.80859 0.8125c-0.73047-0.38672-1.2695-1.1523-1.3359-1.9688-0.0352-0.44922 0.043-0.94141 0.12109-1.418 0.10156-0.61719 0.20313-1.2461 0.0703-1.8203l1.0938 1.0898c-0.14843 1.0508 0.12891 2.3359 1.0039 3.0469 0.0156 0.01172 0.0312 0.01953 0.0469 0.02734-0.0586 0.08203-0.1211 0.16016-0.19141 0.23047zm-2.1602 1.4453c-0.46093 0-0.89453-0.17969-1.2188-0.50781l-0.14062-0.13672c-0.0117-0.32031 8e-3 -0.74219 0.0312-1.207 0.0937-1.7852 0.23047-4.5664-1.3125-6.8398l2.0625 2.0625c-0.082 0.09766-0.0859 0.24219-4e-3 0.34375 0.45703 0.56641 0.32813 1.3477 0.19141 2.1797-0.082 0.50781-0.16797 1.0352-0.12891 1.5469 0.0781 0.94141 0.64063 1.8047 1.4336 2.293-0.26954 0.17188-0.58204 0.26562-0.91407 0.26562zm-8.5078-15.93-0.68359 0.67969 0.26953 0.26953c-0.15235-0.02734-0.30469-0.05469-0.45703-0.07813l-0.46875 0.46484c0.53515 0.08594 1.0859 0.17578 1.6133 0.30469l0.90625 0.90234c-0.32422-0.05859-0.67578-0.08984-1.0547-0.09375-0.33203 0-0.66797 0.01172-0.99219 0.02734-0.55468 0.02734-1.0781 0.04687-1.6016-0.0078l-0.46875 0.46875c0.082 0.01953 0.16797 0.03125 0.25 0.04297 0.62109 0.08594 1.2422 0.05859 1.8438 0.03125 0.31641-0.01563 0.64453-0.02734 0.96484-0.02734 0.76954 0.0078 1.3984 0.14063 1.8867 0.39063l1.0508 1.0508c0 0.05078 0.0156 0.10156 0.0469 0.14453 0.125 0.17969 0.23437 0.36719 0.35156 0.57031 0.24219 0.41406 0.48828 0.83984 0.8711 1.168 2.5976 2.2383 2.4297 5.5508 2.3203 7.7422-0.0156 0.25-0.0273 0.48438-0.0312 0.69922l-10.68-10.688-0.67969 0.67969 11.352 11.363c0.50781 0.50781 1.1836 0.78906 1.8984 0.78906 0.71875 0 1.3945-0.28125 1.9024-0.78906l0.93743-0.94142c1.0508-1.0469 1.0508-2.7539 0-3.8047l-11.348-11.359" fill="#d8af1e"/>
   </g>
   <path d="m229.11 54.949c0.0117-0.0039 0.0234-0.0078 0.043-0.0078 0.0469 0 0.10937 0.01563 0.16015 0.02344 0.21875 0.04297 0.42188 0.08594 0.6211 0.14844 0.76562 0.23047 1.4258 0.75391 2.0273 1.2812 1.1289 0.99219 2.1641 2.0977 3.082 3.2891 0.14453 0.19141 0.26953 0.36328 0.3086 0.54688 0.0312 0.13672-4e-3 0.3125-0.10938 0.37109-0.0391 0.01953-0.082 0.03125-0.14062 0.03125-0.0977 0-0.21485-0.03125-0.29688-0.05469-1.1367-0.33594-2.2266-1.0859-3.4258-2.3516-0.73438-0.77344-1.4336-1.6367-2.1328-2.6445-0.10547-0.15234-0.19532-0.29297-0.21485-0.42578-0.0117-0.09766 0.0312-0.19141 0.0781-0.20703zm1.8789 3.6445c1.2695 1.3398 2.4336 2.1328 3.668 2.4961 0.11719 0.03906 0.27735 0.07813 0.44532 0.07813 0.14843 0 0.28515-0.03516 0.40234-0.09766 0.30078-0.17187 0.45703-0.5625 0.37109-0.95312-0.0625-0.29297-0.22656-0.52734-0.40625-0.75781-0.9375-1.2227-2-2.3516-3.1562-3.3672-0.64453-0.56641-1.3594-1.1289-2.2226-1.3945-0.22266-0.06641-0.45313-0.11328-0.67188-0.15625-0.0703-0.01563-0.16406-0.03516-0.26562-0.03516-0.0781 0-0.14453 0.01172-0.21094 0.03516-0.30078 0.09766-0.48828 0.4375-0.44141 0.78516 0.0391 0.27344 0.19141 0.5 0.30469 0.66016 0.71875 1.0312 1.4336 1.918 2.1836 2.707" fill="#d8af1e"/>
   <path d="m231.49 56.875c0.1914 0.07422 0.35937 0.23828 0.5039 0.38281 0.41407 0.41797 0.78516 0.87891 1.1133 1.3672l-0.0703 0.08984c-0.6289-0.57422-1.207-1.2031-1.7305-1.8789 0.0625 0.0039 0.125 0.01562 0.1836 0.03906zm1.4062 2.4336c0.0469 0.04297 0.10937 0.06641 0.17578 0.06641 8e-3 0 0.0156 0 0.0234-0.0039 0.0742-0.0039 0.14062-0.04297 0.1875-0.09766l0.36328-0.46875c0.0703-0.08984 0.0781-0.21094 0.0156-0.30859-0.37109-0.57812-0.80469-1.1211-1.2852-1.6133-0.1836-0.1875-0.40235-0.39453-0.69141-0.50781-0.125-0.04687-0.26172-0.07422-0.39453-0.07422-0.22656 0-0.4375 0.07813-0.58985 0.21875-0.10156 0.08984-0.11718 0.24609-0.0352 0.35547 0.65234 0.88672 1.4023 1.707 2.2305 2.4336" fill="#d8af1e"/>
   <g clip-path="url(#id6)">
    <path d="m206.29 47.297c-1.0117 0-1.9688-0.39844-2.6875-1.1133l-3.8711-3.875c-1.4805-1.4844-1.4805-3.8984 0-5.3828l7.7188-7.7266 0.67969-0.67969 3.7031-3.707c0.71875-0.71875 1.6758-1.1172 2.6914-1.1172 1.0156 0 1.9688 0.39844 2.6875 1.1172l3.8711 3.875c1.4805 1.4805 1.4805 3.8984 0 5.3789l-3.7031 3.707-0.6836 0.68359-3.3789 3.3828-0.67969 0.67969-3.6562 3.6641c-0.71875 0.71484-1.6758 1.1133-2.6914 1.1133zm-2.582-17.52 0.94141-0.9375c0.32422-0.32812 0.75781-0.50781 1.2188-0.50781 0.30468 0 0.59765 0.08203 0.85937 0.23047l-3.293 3.293c-0.3789-0.66016-0.28515-1.5156 0.27344-2.0781zm19.375 15.07c-0.48047-0.23047-0.90625-0.57031-1.2344-0.99219-0.16407-0.20703-0.30079-0.4375-0.42969-0.67578zm-9.7656-1.6445 6.1133 6.1172 0.33984-0.33984 0.33984-0.34375-0.68359-0.68359c0.28125 0.16797 0.55469 0.35156 0.82031 0.55078l0.37891-0.38281c-0.625-0.47656-1.293-0.89062-2.0391-1.1719-0.0547-0.02344-0.11328-0.02344-0.16797-0.0078l-2.4336-2.4336c0.4375-0.30078 1.0352-0.34766 1.5039-0.23828 0.72266 0.16797 1.3398 0.64453 1.7969 1.043 0.72265 0.63672 1.3945 1.3789 2.0391 2.1133l0.3789-0.38281c-0.65234-0.73438-1.3242-1.4844-2.0664-2.1328-0.50391-0.44141-1.1875-0.96875-2.0274-1.1641-0.73828-0.17188-1.4844-0.01953-2.0078 0.37891l-1.6016-1.6055 2.2109-2.2109c1.793 1.5234 3.3906 3.3242 4.9375 5.0664 0.34375 0.38672 0.69531 0.78516 1.0469 1.1758l0.37891-0.37891c-0.34375-0.38281-0.69141-0.77344-1.0274-1.1523-1.5469-1.7461-3.1484-3.5469-4.957-5.0938l0.78907-0.78516 2.7539 2.7539 0.59375 1.1367c0.20703 0.39062 0.41797 0.79297 0.69531 1.1523 0.46875 0.60156 1.1133 1.0586 1.8281 1.3125l0.42578-0.42578 0.15234-0.15625 0.34375-0.33984-6.1133-6.1172 3.7031-3.707c1.8594-1.8594 1.8594-4.8867 0-6.7461l-3.8711-3.875c-0.89843-0.89844-2.0938-1.3945-3.3672-1.3945-1.2734 0-2.4688 0.49609-3.3711 1.3945l-3.7305 3.7344c-0.45312-0.32031-0.98828-0.49609-1.5547-0.49609-0.71875 0-1.3945 0.28125-1.9024 0.78906l-0.9375 0.94141c-0.9375 0.9375-1.0352 2.4062-0.29297 3.457l-3.6836 3.6875c-1.8594 1.8594-1.8594 4.8867 0 6.7461l3.8711 3.875c0.89844 0.90234 2.0977 1.3984 3.3672 1.3984 1.2734 0 2.4727-0.49609 3.3711-1.3984l3.6562-3.6602" fill="#d8af1e"/>
   </g>
   <g fill="#d8af1e">
    <path d="m215.57 26.453 3.8711 3.875c0.13671 0.13672 0.35156 0.14453 0.5 0.02344 0.0117-0.0078 0.0195-0.01562 0.0312-0.02344 0.14453-0.14844 0.14453-0.38281 0-0.53125l-3.8711-3.875c-0.87109-0.87109-2.2852-0.87109-3.1562 0l-12.102 12.113c-0.14844 0.14844-0.14844 0.38672 0 0.53125 8e-3 0.01172 0.0195 0.01563 0.0273 0.02344 0.0703 0.05859 0.15235 0.08594 0.23828 0.08594 0.0937 0 0.19141-0.03516 0.26172-0.10938l4-4 0.33985-0.34375 3.3789-3.3789 0.33985-0.34375 0.33984-0.33984 3.7031-3.707c0.57812-0.57812 1.5195-0.57812 2.0976 0"/>
    <path d="m220.83 55.156c-0.0195 0.13281-0.10937 0.27344-0.21484 0.42578-0.70312 1.0078-1.3984 1.8711-2.1328 2.6445-1.1992 1.2656-2.2891 2.0156-3.4297 2.3516-0.0781 0.02344-0.19531 0.05469-0.29297 0.05469-0.0586 0-0.10547-0.01172-0.14062-0.03125-0.10547-0.05859-0.14063-0.23437-0.11328-0.37109 0.0391-0.18359 0.16406-0.35547 0.3125-0.54688 0.91406-1.1914 1.9531-2.2969 3.082-3.2891 0.60156-0.52734 1.2617-1.0508 2.0234-1.2812 0.20313-0.0625 0.40625-0.10547 0.625-0.14844 0.0508-0.0078 0.11329-0.02344 0.16016-0.02344 0.0156 0 0.0312 0.0039 0.043 0.0078 0.0469 0.01563 0.0898 0.10938 0.0781 0.20703zm0.0898-0.71484c-0.0664-0.02344-0.13672-0.03516-0.21094-0.03516-0.10156 0-0.19531 0.01953-0.26562 0.03516-0.22266 0.04297-0.44922 0.08984-0.67579 0.15625-0.85937 0.26562-1.5742 0.82812-2.2226 1.3945-1.1524 1.0156-2.2148 2.1445-3.1524 3.3672-0.17968 0.23047-0.34765 0.46484-0.41015 0.75781-0.082 0.39062 0.0703 0.78125 0.375 0.95312 0.11719 0.0625 0.25 0.09766 0.40234 0.09766 0.16797 0 0.32422-0.03906 0.44531-0.07813 1.2344-0.36328 2.3984-1.1562 3.668-2.4961 0.75-0.78906 1.4648-1.6758 2.1797-2.707 0.11328-0.16016 0.26953-0.38672 0.30469-0.66016 0.0508-0.34766-0.14063-0.6875-0.4375-0.78516"/>
    <path d="m216.82 58.715-0.0742-0.08984c0.32812-0.48828 0.70312-0.94531 1.1133-1.3672 0.14453-0.14453 0.3164-0.30859 0.5039-0.38281 0.0586-0.02344 0.125-0.03516 0.1836-0.03906-0.51953 0.67578-1.1016 1.3047-1.7266 1.8789zm1.7422-2.4141c-0.1289 0-0.26562 0.02734-0.39062 0.07422-0.28906 0.11328-0.50781 0.32031-0.69141 0.50781-0.48437 0.49219-0.91406 1.0352-1.2852 1.6133-0.0625 0.09766-0.0586 0.21875 0.0117 0.30859l0.36719 0.46875c0.0469 0.05469 0.11328 0.09375 0.1875 0.09766 8e-3 0.0039 0.0156 0.0039 0.0234 0.0039 0.0625 0 0.12891-0.02344 0.17578-0.06641 0.82813-0.73047 1.5781-1.5469 2.2305-2.4336 0.0781-0.10938 0.0664-0.26562-0.0352-0.35547-0.15234-0.14062-0.36328-0.21875-0.59375-0.21875"/>
   </g>
   <g clip-path="url(#id7)">
    <path d="m250.12 42.309-3.8711 3.875c-0.71484 0.71484-1.6719 1.1133-2.6875 1.1133-1.0156 0-1.9688-0.39844-2.6875-1.1133l-4.3398-4.3438-3.3789-3.3828-0.33984-0.33984-0.33985-0.34375-3.7031-3.707c-1.4844-1.4805-1.4844-3.8984 0-5.3789l3.8711-3.875c0.71875-0.71875 1.6719-1.1172 2.6875-1.1172 1.0156 0 1.9688 0.39844 2.6875 1.1172l4.3867 4.3867 3.3789 3.3828 0.33984 0.33984 3.9961 4.0039c1.4844 1.4844 1.4844 3.8984 0 5.3828zm-15.867 1.8164c-0.52344-0.39844-1.2695-0.55078-2.0078-0.37891-0.83984 0.19531-1.5234 0.72266-2.0273 1.1641-0.82031 0.71484-1.5586 1.5547-2.2695 2.3672-0.17188 0.19141-0.33985 0.38281-0.50781 0.57031-0.0625 0.07422-0.12891 0.14453-0.19141 0.21484-0.043 0.04687-0.0898 0.09766-0.13281 0.14453-0.10938 0.11719-0.21875 0.23828-0.32813 0.35156-0.10937 0.11719-0.22265 0.23438-0.33594 0.34766-0.48046 0.48438-0.98437 0.92969-1.5273 1.3086-0.15625 0.10938-0.31641 0.21484-0.48047 0.30859-0.2539 0.15234-0.51562 0.28516-0.78906 0.40234-0.0273 0.01172-0.0547 0.02344-0.0859 0.03516-0.15625 0.06641-0.3125 0.12109-0.47265 0.17187-0.12891 0.04297-0.25391 0.07813-0.37891 0.11328-0.17969 0.05078-0.36328 0.09375-0.54688 0.13672-0.1875 0.03906-0.3789 0.07422-0.57031 0.10938-0.28125 0.05078-0.5664 0.09766-0.85547 0.14062-0.29687 0.04688-0.60156 0.09766-0.90234 0.15234l1.0234-1.0273 2.0039-2.0039c0.17188 0.07031 0.35157 0.12109 0.53125 0.15234 0.14844 0.02734 0.30078 0.03906 0.44922 0.03906 0.375 0 0.7461-0.07422 1.0742-0.19141 0.14453-0.04687 0.28125-0.10547 0.40625-0.16797 0.12109-0.0625 0.23828-0.12891 0.35156-0.19922 0.1875-0.11719 0.3711-0.25 0.54297-0.39062 0.125-0.10156 0.24219-0.20703 0.36328-0.32031 0.11328-0.10547 0.23047-0.21875 0.34375-0.33594 0.16797-0.17578 0.33985-0.36328 0.51172-0.55078 0.42578-0.46875 0.85156-0.94922 1.2617-1.4141 1.5469-1.7422 3.1445-3.543 4.9375-5.0664l2.2109 2.2109zm-2.8164 2.8164c-0.0547-0.01563-0.11328-0.01563-0.16797 0.0078-1.0859 0.41016-2.0078 1.0938-2.8672 1.8633-0.12109 0.10547-0.23828 0.21484-0.35547 0.32422-0.11718 0.10938-0.23437 0.21875-0.34765 0.33203-0.20703 0.19922-0.41016 0.39844-0.61328 0.59766-0.13282 0.13281-0.26563 0.26172-0.39844 0.39062-0.16016 0.16016-0.32422 0.31641-0.48828 0.46875-0.14453 0.13281-0.28906 0.26172-0.4336 0.39062-0.27343 0.23828-0.55078 0.46875-0.83984 0.67969-0.15234 0.11328-0.30469 0.21875-0.46094 0.32031-0.14062 0.09375-0.28125 0.17578-0.42187 0.25781-0.14844 0.08203-0.29688 0.16016-0.44922 0.23438-0.15625 0.07422-0.31641 0.14062-0.47656 0.19922-0.34766 0.13281-0.70703 0.22656-1.0781 0.27734-0.5664 0.08203-1.1367 0.05469-1.7422 0.02734-0.32421-0.01563-0.66015-0.02734-0.99218-0.02734-0.38282 0.0039-0.73438 0.03516-1.0547 0.09375l0.90234-0.90234c0.55078-0.13281 1.1211-0.22656 1.6758-0.3125 0.40625-0.06641 0.82032-0.13281 1.2305-0.21484 0.1875-0.03516 0.3711-0.07813 0.5586-0.12109 0.17578-0.04687 0.35547-0.09375 0.53125-0.14844 0.13281-0.03906 0.26172-0.08594 0.39062-0.13281 0.0781-0.03125 0.16016-0.05859 0.23438-0.08984 0.10937-0.04297 0.21484-0.08984 0.3164-0.14062 0.29297-0.13672 0.57032-0.29297 0.83594-0.46094 0.16797-0.10547 0.32813-0.21484 0.48438-0.33203 0.63281-0.46484 1.2109-1.0117 1.7578-1.5859 0.10937-0.11719 0.21875-0.23438 0.32812-0.35156 0.10938-0.12109 0.21485-0.23828 0.32422-0.35938 0.17578-0.19922 0.35156-0.39844 0.52735-0.59766 0.70312-0.79688 1.4297-1.6211 2.2226-2.3164 0.45703-0.39844 1.0703-0.875 1.793-1.043 0.46875-0.10938 1.0703-0.0625 1.5078 0.23828zm-2.4492 2.4531-1.8516 1.8516-0.42969 0.43359-0.89453 0.89453-13 13.012c-8e-3 -0.21484-0.0195-0.44922-0.0312-0.69922-0.10938-2.1914-0.27734-5.5039 2.3203-7.7422 0.38281-0.32812 0.62891-0.75391 0.8711-1.168 0.11328-0.20312 0.22656-0.39062 0.34765-0.57031 0.0312-0.04297 0.0469-0.09375 0.0508-0.14453l1.0469-1.0508c0.49219-0.25 1.1211-0.38281 1.8906-0.39063 0.31641 0 0.64453 0.01172 0.96485 0.02734 0.60156 0.02734 1.2226 0.05469 1.8398-0.03125 0.49609-0.06641 0.96484-0.20312 1.418-0.39062 0.15625-0.06641 0.3125-0.14062 0.46484-0.21484 0.14844-0.07813 0.29688-0.16016 0.44141-0.24219 0.16406-0.10156 0.32812-0.20312 0.48828-0.31641 0.16016-0.10547 0.3125-0.21875 0.46484-0.33594 0.31641-0.24219 0.625-0.5 0.92188-0.76953 0.15234-0.13672 0.30078-0.27344 0.44531-0.41406 0.10156-0.09375 0.20313-0.19141 0.30469-0.28906 0.13281-0.13281 0.26562-0.26172 0.39844-0.39453 0.20312-0.19922 0.41015-0.40234 0.61328-0.60156 0.11719-0.11328 0.23437-0.22266 0.35156-0.33203s0.23438-0.21875 0.35547-0.32422c0.51953-0.46484 1.0625-0.89062 1.6484-1.2383zm-16.711 16.727-0.13672 0.13672c-0.32812 0.32813-0.76171 0.50781-1.2226 0.50781-0.32813 0-0.64063-0.09375-0.91406-0.26562 0.79687-0.48828 1.3594-1.3516 1.4336-2.293 0.043-0.51172-0.043-1.0391-0.125-1.5469-0.13672-0.83203-0.26563-1.6133 0.19141-2.1797 0.082-0.10156 0.0781-0.24609-4e-3 -0.34375l2.0586-2.0625c-1.543 2.2734-1.4023 5.0547-1.3125 6.8398 0.0234 0.46484 0.0469 0.88672 0.0312 1.207zm-3.5156-0.80078c-0.0703-0.07031-0.13672-0.14844-0.19141-0.23047 0.0156-0.0078 0.0312-0.01563 0.043-0.02734 0.875-0.71094 1.1523-1.9961 1.0078-3.0469l1.0898-1.0898c-0.12891 0.57422-0.0273 1.2031 0.0703 1.8203 0.0781 0.47656 0.16016 0.96875 0.125 1.418-0.0664 0.81641-0.60938 1.582-1.3359 1.9688zm-0.42969-0.72266c-0.17969-0.58984-0.0352-1.2539 0.42969-1.7188l0.36328-0.36719c0.0156 0.76562-0.22656 1.5859-0.79297 2.0859zm15.297-16.602 0.3789-0.37891 0.91797-0.92188 0.34375-0.33984 0.33984-0.33984 0.34766-0.35156c0.97266-0.16406 1.8711-0.69922 2.4727-1.4805 0.28125-0.35938 0.49218-0.76172 0.69531-1.1523l0.59766-1.1367 2.7539-2.7539 0.78906 0.78516c-1.8086 1.5469-3.4102 3.3477-4.9609 5.0938-0.41016 0.46484-0.83203 0.94141-1.2539 1.4062-0.16797 0.1875-0.33203 0.36328-0.49609 0.53516-0.11328 0.11719-0.23047 0.23047-0.34375 0.33594-0.1211 0.11328-0.24219 0.21875-0.36328 0.32031-0.23829 0.1875-0.48829 0.35547-0.75391 0.48828-0.0547 0.02734-0.10938 0.05469-0.16797 0.07813-0.24609 0.10547-0.50391 0.17188-0.75391 0.20312-0.30859 0.03906-0.60546 0.01953-0.8789-0.05469zm4.8086-4.8164c-0.12891 0.23828-0.26953 0.46875-0.42969 0.67578-0.32812 0.42188-0.7539 0.76172-1.2344 0.99219zm15.551-14.848c0.46094 0 0.89453 0.17969 1.2188 0.50781l0.9375 0.9375c0.32813 0.32812 0.50781 0.76172 0.50781 1.2227 0 0.30469-0.082 0.59766-0.23047 0.85547l-3.293-3.293c0.25781-0.14844 0.55078-0.23047 0.85937-0.23047zm6.8164 7.9102-3.6875-3.6875c0.32422-0.45313 0.49609-0.98828 0.49609-1.5547 0-0.71875-0.27734-1.3945-0.78516-1.9023l-0.9414-0.94141c-0.50781-0.50781-1.1797-0.78906-1.8984-0.78906-0.56641 0-1.1055 0.17578-1.5547 0.49609l-3.7305-3.7344c-0.90234-0.89844-2.0976-1.3945-3.3711-1.3945s-2.4688 0.49609-3.3672 1.3945l-3.8711 3.875c-1.8594 1.8594-1.8594 4.8867 0 6.7461l3.7031 3.707-8.4961 8.5039-0.88672 0.88672-1.8867 1.8906-0.33984 0.33984-12.105 12.117c-1.0508 1.0508-1.0508 2.7578 0 3.8047l0.9375 0.94141c0.50781 0.50781 1.1797 0.78906 1.8984 0.78906s1.3945-0.28125 1.9023-0.78906l12.105-12.117 1.3984-1.3984 0.41406-0.41797 1.0586-1.0586 8.7383-8.7461 3.6602 3.6602c0.89844 0.90234 2.0938 1.3984 3.3672 1.3984s2.4688-0.49609 3.3711-1.3984l3.8711-3.875c1.8555-1.8594 1.8555-4.8867 0-6.7461" fill="#d8af1e"/>
   </g>
   <path d="m245.36 34.375-8.4453-8.4531c-0.8711-0.87109-2.2852-0.87109-3.1562 0l-3.8711 3.875c-0.14453 0.14844-0.14453 0.38281 0 0.53125 0.0117 0.0078 0.0195 0.01563 0.0312 0.02344 0.14453 0.12109 0.36328 0.11328 0.5-0.02344l3.8711-3.875c0.57812-0.57812 1.5156-0.57812 2.0938 0l3.7031 3.707 4.0625 4.0625 0.33984 0.34375 3.9961 4c0.0742 0.07422 0.17187 0.10938 0.26562 0.10938 0.0859 0 0.16797-0.02734 0.23828-0.08594 8e-3 -0.0078 0.0195-0.01172 0.0273-0.02344 0.14844-0.14453 0.14844-0.38281 0-0.53125l-3.6562-3.6602" fill="#d8af1e"/>
  </g>
 </g>
</svg>
