<svg xmlns="http://www.w3.org/2000/svg" viewBox="0 0 313.89 114.03"><defs><style>.cls-1{fill:#231f20;}</style></defs><g id="Layer_2" data-name="Layer 2"><g id="Layer_1-2" data-name="Layer 1"><path class="cls-1" d="M197.09,100.63H175.66L142.05,47.45v53.18H121.42V12.53h22.22l32.81,53.7V12.53h20.64Z"/><path class="cls-1" d="M206.07,12.53h32.15c31.48,0,46.83,14.42,46.83,44.05s-15.35,44.05-46.83,44.05H206.07ZM239,82.11c16,0,23.55-8.07,23.55-25.53S255,31.05,239,31.05H228.56V82.11Z"/><path class="cls-1" d="M313.89,100.63H291.4V12.53h22.49Z"/><path class="cls-1" d="M26.06,86.92h0L11.23,102.27a.37.37,0,0,0,.53.53L27.1,88s0,0,0,0C26.75,87.64,26.4,87.28,26.06,86.92Z"/><path class="cls-1" d="M13.79,59.13.11,73.31a.37.37,0,0,0,0,.52.38.38,0,0,0,.53,0L14.17,60.78c-.06-.58-.11-1.32-.14-1.91Z"/><path class="cls-1" d="M40.2,113.4a.37.37,0,0,0,.53.53l13.9-13.42a1.7,1.7,0,0,0,.24-.23c-.58,0-1.3-.09-1.87-.15Z"/><path class="cls-1" d="M49.32,13.89,36,1.34a.38.38,0,0,0-.53.53L47.44,14.52c.65-.16,1.41-.32,2.08-.44A1.65,1.65,0,0,0,49.32,13.89Z"/><path class="cls-1" d="M106.74,92.83a.38.38,0,0,0,.53-.53L95,79.12a.18.18,0,0,0-.09-.06c-.35.59-.72,1.18-1.1,1.75Z"/><path class="cls-1" d="M35.24,19.33,21.73,6.76a.38.38,0,0,0-.53.53L33.52,20.54c.59-.39,1.18-.76,1.78-1.12A.18.18,0,0,0,35.24,19.33Z"/><path class="cls-1" d="M113.93.63a.37.37,0,0,0,0-.52.37.37,0,0,0-.52,0L87,24.86s0,0,0,0c.74.69,1.46,1.4,2.15,2.13h0Z"/><path class="cls-1" d="M112.16,78.53a.37.37,0,0,0,.53-.53L100.46,65l-.19-.2c-.13.66-.28,1.41-.43,2Z"/><path class="cls-1" d="M68.07,6.4a.38.38,0,0,0-.53-.53l-7.85,7.26a3.71,3.71,0,0,0-.28.25c.64,0,1.45.09,2.08.14Z"/><path class="cls-1" d="M101.17,54.06l7-7.57a.38.38,0,0,0-.53-.53l-6.86,6.34c.06.61.12,1.4.15,2A2.41,2.41,0,0,0,101.17,54.06Z"/><path class="cls-1" d="M82.83,28.8,87,24.88A43.38,43.38,0,0,0,61.49,13.52l-5.85,6.33,9.48,9A12.53,12.53,0,0,0,82.83,28.8Z"/><path class="cls-1" d="M76.41,75.87A8.55,8.55,0,0,0,79,69.76h0a8.59,8.59,0,0,0-2.54-6.12L64.94,51.49,27.11,88A43.36,43.36,0,0,0,53,100.13Z"/><path class="cls-1" d="M14.17,60.78A43.32,43.32,0,0,0,26.05,86.91L62.55,49.1,50.39,37.62a8.65,8.65,0,0,0-12.23,0Z"/><path class="cls-1" d="M52.06,23.72a8.63,8.63,0,0,0-2.53,6.12h0A8.59,8.59,0,0,0,52.07,36L63.48,48.05A12.38,12.38,0,0,0,63,31l-8.9-9.42C53.48,22.19,52.07,23.72,52.06,23.72Z"/><path class="cls-1" d="M38,21.88a8.65,8.65,0,0,0,12.24,0l2.22-2.05-4.86-5.15-.13-.16a43.08,43.08,0,0,0-12.13,4.9Z"/><path class="cls-1" d="M94.21,61.59l-2.06,2.23a8.68,8.68,0,0,0,0,12.24l2.77,3A43.4,43.4,0,0,0,99.84,66.9Z"/><path class="cls-1" d="M36.32,35.78a8.65,8.65,0,0,0,0-12.24l-2.79-3A43.47,43.47,0,0,0,14,56.85c0,.68,0,1.35,0,2C16.88,55.93,36.32,35.78,36.32,35.78Z"/><path class="cls-1" d="M90.48,77.71a8.65,8.65,0,0,0-12.23,0L54.87,100.28c.87,0,1.75.09,2.63.09A43.49,43.49,0,0,0,93.82,80.81Z"/><path class="cls-1" d="M95.69,60l4.58,4.85a43.81,43.81,0,0,0,.74-8c0-.85,0-1.69-.08-2.53Z"/><path class="cls-1" d="M90.32,62l2.17-2-9.42-8.89A12.42,12.42,0,0,0,66,50.55L78.08,62A8.65,8.65,0,0,0,90.32,62Z"/><path class="cls-1" d="M100.78,52.3A43.37,43.37,0,0,0,89.16,27l-3.93,4.19a12.54,12.54,0,0,0,0,17.71l9,9.48,6.38-5.9Z"/><path class="cls-1" d="M54,18.35l5.37-5c-.63,0-1.27-.05-1.91-.05a43.7,43.7,0,0,0-8,.75Z"/></g></g></svg>